<?xml version="1.0" encoding="utf-8"?>
<!-- Generator: Adobe Illustrator 16.0.0, SVG Export Plug-In . SVG Version: 6.00 Build 0)  -->
<!DOCTYPE svg PUBLIC "-//W3C//DTD SVG 1.1//EN" "http://www.w3.org/Graphics/SVG/1.1/DTD/svg11.dtd">
<svg version="1.1" xmlns="http://www.w3.org/2000/svg" xmlns:xlink="http://www.w3.org/1999/xlink" x="0px" y="0px" width="350px"
	 height="100px" viewBox="0 0 350 100" enable-background="new 0 0 350 100" xml:space="preserve">
<g id="BG">
</g>
<g id="Graphics">
	<g>
		<g>
			<path fill="#3C2415" d="M55.381,38.079h-5.355l-0.113-2.659c2.369-1.961,3.88-4.923,3.88-8.231
				c0-5.891-4.792-10.681-10.68-10.681h-1.03c-1.568-4.76-5.927-7.576-10.876-7.576c-3.98,0-7.511,1.847-9.5,4.618
				c-1.556,0.003-7.692-0.437-11.964,4.504c-4.604,5.33-3.257,13.331,1.759,17.126L8.769,87.298
				c-0.155,2.972,2.21,5.467,5.187,5.467h32.95c2.985,0,5.364-2.485,5.238-5.467l-0.494-11.501h3.731
				c5.859,0,10.624-4.762,10.624-10.622V48.7C66.004,42.844,61.24,38.079,55.381,38.079z M43.875,33.963H31.13v-0.731
				c0-1.065-0.862-1.931-1.929-1.931c-1.066,0-1.93,0.865-1.93,1.931v19.915c0,1.742-1.417,3.158-3.157,3.158
				c-1.741,0-3.157-1.416-3.157-3.158V33.232c0-1.065-0.864-1.931-1.93-1.931c-1.067,0-1.932,0.865-1.932,1.931v0.347
				c-3.304-0.825-5.658-2.922-6.221-6.745c-0.783-5.342,3.626-9.486,9.425-9.426c1.165,0.006,2.22,0,3.238,0
				c0.172,0,0.341,0,0.506,0c0.879-2.91,4.065-4.614,7.161-4.614c4.371,0,7.618,3.013,7.618,7.573c0.997-0.001,2.605,0,4.29,0
				c3.766,0,6.819,3.054,6.819,6.822C49.932,30.698,47.282,33.583,43.875,33.963z M57.961,65.175c0,1.421-1.159,2.577-2.58,2.577
				h-4.08l-0.928-21.631h5.007c1.421,0,2.58,1.159,2.58,2.578V65.175z"/>
			<path fill="#FFC024" d="M15.25,86.031h30.424l-1.976-45.959H33.692v12.763c0,5.282-4.296,9.578-9.579,9.578
				c-3,0-5.683-1.387-7.44-3.551L15.25,86.031z"/>
		</g>
		<g>
			<path fill="#FFC024" d="M107.921,73.652c0,7.121-5.367,11.228-12.816,11.228H78.456V84.77c1.369-1.039,3.231-3.504,3.231-8.434
				V55.303c0-4.488-1.479-7.173-3.231-8.378v-0.109h15.115c8.216,0,12.378,3.066,12.378,9.585c0,4.161-3.121,7.558-6.298,8.051
				v0.165C104.197,65.163,107.921,69.216,107.921,73.652z M89.19,52.183v9.857h3.943c3.177,0,5.093-1.751,5.093-5.257
				c0-3.123-1.862-4.601-5.093-4.601H89.19z M100.09,73.378c0-3.614-1.973-6.024-6.08-6.024h-4.82v12.158h4.82
				C98.117,79.512,100.09,76.995,100.09,73.378z"/>
			<path fill="#FFC024" d="M141.281,74.417l-1.534,10.9c-2.027-0.329-3.451-0.438-6.682-0.438h-19.333V84.77
				c1.369-0.93,2.958-3.616,2.958-8.105V55.031c0-4.546-1.534-7.173-2.958-8.105v-0.109h19.662c2.19,0,4.6-0.164,5.805-0.438
				l0.932,9.806l-0.11,0.053c-1.314-2.684-4.326-4.053-8.598-4.053h-7.229v9.64h4.162c4.546,0,6.08-0.056,8.544-0.383l-1.588,9.199
				h-0.11c-0.932-2.465-2.902-3.451-5.97-3.451h-5.038v12.324h5.969c4.82,0,8.653-1.807,11.008-5.147L141.281,74.417z"/>
			<path fill="#FFC024" d="M174.146,74.417l-1.534,10.9c-2.026-0.329-3.451-0.438-6.682-0.438h-19.333V84.77
				c1.369-0.93,2.958-3.616,2.958-8.105V55.031c0-4.546-1.534-7.173-2.958-8.105v-0.109h19.662c2.19,0,4.6-0.164,5.805-0.438
				l0.931,9.806l-0.109,0.053c-1.315-2.684-4.326-4.053-8.599-4.053h-7.229v9.64h4.162c4.545,0,6.08-0.056,8.544-0.383l-1.588,9.199
				h-0.11c-0.93-2.465-2.902-3.451-5.969-3.451h-5.039v12.324h5.969c4.82,0,8.654-1.807,11.008-5.147L174.146,74.417z"/>
			<path fill="#FFC024" d="M213.639,83.894v0.11l-11.228,2.026c-0.711-2.137-1.589-4.056-2.793-6.078l-8.489-14.515h2.629
				c4.711,0,7.339-1.918,7.339-6.792c0-3.999-2.628-6.517-7.339-6.463l-3.834,0.055v24.646c0,4.326,1.533,6.957,2.739,7.887v0.109
				h-13.2V84.77c1.425-0.93,2.958-3.616,2.958-8.105V54.812c0-4.327-1.533-6.954-2.958-7.887v-0.109h15.555
				c8.763,0,13.856,4.437,13.856,11.557c0,5.804-2.848,9.364-7.447,10.844l5.092,8.271C208.601,80.827,211.01,83.016,213.639,83.894
				z"/>
			<path fill="#FFC024" d="M215.561,83.511l-0.931-9.2l0.108-0.057c3.287,4.271,6.847,5.86,11.339,5.751
				c4.435-0.108,6.353-1.972,6.353-4.929c0-3.779-3.341-5.203-7.065-6.737c-4.765-1.971-10.077-4.216-10.077-11.829
				c0-5.423,4.655-10.406,13.144-10.406c2.85,0,5.423,0.328,8.599,1.149l0.712,8.982h-0.108c-2.355-3.614-5.478-4.491-8.654-4.491
				c-4.162,0-6.298,1.425-6.298,4.218c0,3.177,3.066,4.436,6.627,5.915c4.875,2.025,10.68,4.436,10.68,12.652
				c0,6.079-4.49,11.063-13.363,11.171C222.188,85.754,218.025,84.989,215.561,83.511z"/>
			<path fill="#3C2415" d="M293.722,84.77v0.109h-12.378V84.77c0.933-0.711,1.369-2.957,0-6.736l-0.493-1.314h-14.13l-0.492,1.314
				c-1.425,3.779-0.877,6.025-0.109,6.736v0.109h-11.502V84.77c1.479-1.314,3.833-4.655,5.313-8.873l7.832-22.563
				c1.094-3.232,0.054-5.533-0.986-6.409v-0.109h14.514v0.109c-1.041,0.933-2.137,3.177-0.987,6.409l8.052,22.563
				C289.834,80.115,292.188,83.511,293.722,84.77z M270.556,65.547l-2.027,5.805h10.516l-2.027-5.805
				c-1.259-3.561-2.629-7.23-3.176-11.446h-0.219C273.129,58.317,271.814,61.987,270.556,65.547z"/>
			<path fill="#3C2415" d="M324.727,59.194c0,8.928-5.093,13.143-13.802,13.143h-4.492v4.547c0,4.326,1.534,6.957,2.958,7.887v0.109
				h-13.417V84.77c1.368-0.93,2.957-3.616,2.957-8.105V54.812c0-4.327-1.534-6.954-2.957-7.887v-0.109h14.951
				C319.634,46.816,324.727,51.307,324.727,59.194z M316.948,59.577c0-5.039-2.301-7.339-7.283-7.339h-3.232v14.623l3.232,0.056
				C314.703,66.971,316.948,64.288,316.948,59.577z"/>
			<path fill="#3C2415" d="M329.605,84.77c1.369-0.93,2.958-3.616,2.958-8.105V55.031c0-4.546-1.534-7.173-2.958-8.105v-0.109
				h13.474v0.109c-1.37,0.933-2.958,3.615-2.958,8.105v21.634c0,4.545,1.534,7.176,2.958,8.105v0.109h-13.474V84.77z"/>
		</g>
	</g>
</g>
</svg>
