<?xml version="1.0" encoding="utf-8"?>
<!-- Generator: Adobe Illustrator 16.0.0, SVG Export Plug-In . SVG Version: 6.00 Build 0)  -->
<!DOCTYPE svg PUBLIC "-//W3C//DTD SVG 1.1//EN" "http://www.w3.org/Graphics/SVG/1.1/DTD/svg11.dtd">
<svg version="1.1" id="Layer_1" xmlns="http://www.w3.org/2000/svg" xmlns:xlink="http://www.w3.org/1999/xlink" x="0px" y="0px"
	 width="200px" height="200px" viewBox="75 -50 200 200" enable-background="new 75 -50 200 200" xml:space="preserve">
<g id="BG">
</g>
<g id="Graphics">
	<g>
		<g>
			<path fill="#3C2415" d="M215.468,22.684h-11.454l-0.243-5.688c5.068-4.195,8.301-10.532,8.301-17.609
				c0-12.601-10.253-22.848-22.847-22.848h-2.203c-3.353-10.182-12.678-16.207-23.265-16.207c-8.514,0-16.069,3.95-20.323,9.879
				c-3.328,0.006-16.454-0.936-25.593,9.635c-9.849,11.402-6.968,28.517,3.763,36.635l-5.846,111.49
				c-0.332,6.356,4.727,11.695,11.096,11.695h70.485c6.386,0,11.475-5.315,11.206-11.695l-1.058-24.604h7.98
				c12.534,0,22.726-10.186,22.726-22.722V45.404C238.191,32.876,228.002,22.684,215.468,22.684z M190.854,13.878h-27.263v-1.564
				c0-2.277-1.844-4.129-4.126-4.129c-2.281,0-4.129,1.851-4.129,4.129v42.602c0,3.727-3.03,6.756-6.753,6.756
				c-3.724,0-6.753-3.029-6.753-6.756V12.314c0-2.277-1.849-4.129-4.129-4.129c-2.282,0-4.132,1.851-4.132,4.129v0.744
				c-7.068-1.765-12.104-6.25-13.308-14.429c-1.675-11.426,7.756-20.293,20.161-20.163c2.492,0.013,4.75,0,6.928,0
				c0.368,0,0.729,0,1.082,0c1.88-6.225,8.696-9.871,15.319-9.871c9.35,0,16.297,6.445,16.297,16.2c2.132-0.002,5.57,0,9.176,0
				c8.056,0,14.587,6.532,14.587,14.592C203.813,6.896,198.144,13.066,190.854,13.878z M220.986,80.646
				c0,3.039-2.48,5.514-5.519,5.514h-8.729l-1.984-46.272h10.711c3.039,0,5.521,2.479,5.521,5.515L220.986,80.646L220.986,80.646z"
				/>
			<path fill="#FFC024" d="M129.622,125.262h65.081l-4.227-98.313h-21.404V54.25c0,11.298-9.19,20.487-20.491,20.487
				c-6.417,0-12.156-2.969-15.916-7.598L129.622,125.262z"/>
		</g>
	</g>
</g>
</svg>
